<svg xmlns="http://www.w3.org/2000/svg" viewBox="28 26 206 207"><path fill="currentColor" fill-rule="evenodd" d="m128 224 1 1 2-1Zm-8 0v1h2v-1Zm-7 0v1h3l-1-1Zm-14 0v1h5Zm-6 0-3 1h3Zm-9 1 2-1h-2Zm-8-1 1 1h4l-2-1Zm103-1v1h2v-1Zm-15 0v1h2v-1Zm-22 0v1h2v-1Zm-79 1-1-1-2 1 2 1Zm76-5v1h2Zm-36 0-1 1 1 1 1-1Zm-7 0v2h1v-2Zm-8 0v2h2v-1Zm-7 0-1 1 2 1 1-1Zm73-1v1h2Zm68-2v2h1v-2Zm-171 0-1 1v2h1Zm-4-1-1 2h1Zm170-4 1-1 1 2-1 1Zm-181-2-1 2 1 1 1-1Zm160-6 1 1v2l-2 4-4 3h-3l-2-2v-3l5-5 2 1-1 3v-1Zm-160-1h-1v2Zm74-1-4 3h-1l-3 3-5 2-2 2h-2l-2-3 3-3 1 1v2l1-2-2-1 3-3v-1l3-2h4l1 1h4Zm46-3v1h2Zm-97 0-2 1h2Zm-23-3h-1v2Zm22-2v1h2Zm20-3 1 2-2 1-1-1Zm8-2-2-2h-2l-1-1h-4l-1 1h-3l-3 2v2l1 1v2l2 2h4l2-1 3-3v-1l-1-1h-5l-1 1h-2l-1-1 2-2 2-1h6Zm13-6 1 2-2 2-4 2-1-2 4-4Zm121-1 2 2v4l-3 4h-3l-3-3v-3l1-1 1 2h2l1-1v-3Zm-155 0 1-1 1 1-1 1Zm-29-1h-1v2Zm167-1v1h2v-1Zm-29 0 1-1 1 1-1 1Zm-56-1h-1v4l-2 4 2-1v-5Zm30 1 4-4h3l1-1h2l2 2 3 1 2 2-1 1h1l2 2-1 1h-5 2l1 1-1 2h-2v1h2l1 1-1 1h-10l-4-3 1-1h2l3-2v-2l-1-1h-5Zm-79-9v1h2v-1Zm51-3 1 1v8l-1 1v9l-1 1v3l-2 2-2 4-1-1v-5l-1-2-3-3v-8l-1-2 3-4Zm79-2v10l-2 4-2 2v1l-3 3h-3l-1 1h-6l-4-2 1-1h3l1-1h2-9l-1-1 4-3 1 1h3-3l-1-1 1-2-3 2-2-1 1-3 3-3h1l4-3h3l1 1v4h4l2-2v-2l2-4 1-1Zm-52 1 2-1h-2Zm-44-5 1 1 2-1Zm-63 0-1 2h1Zm149-2 2 1v-1Zm-69 0v3l-1 1h-1l-8 6-3 1-4 4h-1l-7 6-6 3-1-1v-1l5-5h1l4-4h1l7-6 3-1 2-2 4-2 3-3Zm-11-2v1h2v-1Zm59-2 2 3v2l-1 1-2-3v-2Zm-11-1-2 1 1 1Zm-101 0 1-1 1 2-1 1Zm107-2 2 2v6l3 5 2-1 1-2v-3l-1-1 1-2 4 3 2 4v3l-2 2v3l-2 2-1-1v-2l-2 3-1-1v-3l-1-1v6l-1 1-1-1v-3h-2l-1-2-2 1-2-2v-9l1-1v-2l1-2Zm-108 1 1-1 1 1-1 1Zm-15 0h-1v2Zm26-2h1l3 3v6l-3 3h-4l-6-6 1-1h8v-3l-1-1Zm78 6 2-2 3-1 2-2 4-2h2l1-1h3l1-1h8l1 1h2l4 3h2l2 2 3 1 2 2 5-1 2-2 1 2h2l1-1 2 2h1l2 3 2 1 1 2v2l-1 2h2l2 2v2l-2 1v1l2 1v5l-4 8-4 4h-2l-2 3-6 2-1-1h-2l-4-2-2-2 1-2h7l1-1h2l2-2h1l5-6v-2l1-1v-15l-2-1-2-3h-1v3l-2 3v3l-2 3h-1l-1-2-3-2-1 1h-3l-2 1-1-1v-5l-1-2-3-3v-1l-7-4-5-1-4 3-2 4v5l-1 1 1 1v4l2 2-2 2h-3l-6 3-2 2v2l-1 1-2-2v-6l1-1v-12l-1-1 1-1Zm-24-6v5l-1 1-3 1-4 4-3 1-4 4-3 1-4 4-3 1-2 2-2-1 2-2 2-5 2-2 1 2 2-1v-1l-2-1v-2l2-4 2-2 2 1v-1h-1l-1-2 6-6h2l2 2-1 1 1 2h4l3-3Zm-73-3-2 4v4l-1 1v8l3 4v1l2 2-3-5v-3l-1-1v-7l1-1v-3l2-4Zm145-2 10 5 6 6v1l2 2 2 4v3l2 4v11l-2 2-2 5-2 2-3 6v2l-1 1v6l1 2 2 1h8l1 1-3 3h-2v1h3l2-2 2 1-2 3-2 1h-2l-1 1-2-1h-3l-4-2-3-3v-9l3-6h-2l-3 3-2 1h-3l-1 1h-5l-1-1h-10v1l-2 2h-2l-1-1v-3l3-3 2-1-4-4-1-2v-2l-1-1v-3l2-4h1l2 2v4l3 4v2l4 4 2 1h2l1 1h2l1-1h4l6-3 6-6v-1l3-4v-2l1-1v-12l-1-1v-2l-3-6h-1l-1-2-4-4h-1l-3-3-4-2Zm-125-1 1 1h3l4 4 2 4v9l-1 1v3l-2 4-2 2-1 3-4 5-1-1v-2l1-1v-10l2-1v-1l2-1v-1l2-2v-7l-2-2v-1l-4-2h-3l-1 1 1 2v2l-1 1h-1l-2-3v-4l2-2h4Zm-28 1v2h1Zm32-3h-8l-2 1-5 5v1l-3 4v2l-2 2h-1v3l1 2v-3l1-1 2 4 2 2h1l-2-2-2-4v-3l1-1 3 4v1l4 4 3 6v6l-1 1v2l-5 5h-7l-2-1-3-4 1-1h2l1 1h3l1-2-3-3v1l-2 2-1-1h-2l-3-3-1 2h-2l-1 1v1h2l1-2 2 2 1 5 4 3h1l2 2-2 2v1h1v-1l2-2h5l1-1h2l4-4 1 1-1 2v2l-1 1v2l1 1-2 1h1l2 2v2l-2 2h-1l-4 5h-3l-2-2v-3l-2-4-2 1-1 2v2l1-1 2 2v3l2 4h3l4-2 1-2 2-1 4-4h3l-4-4-1-2v-6l2-4 2-2v-1l3-3 3-6v-2l1-1v-3l1-1v-11l-1-1v-2l-2-2v-1Zm13-6-1 1 2 1Zm-22 0h-3l-2 1-2 2h-1l-4 4v1l7-7Zm26-1v2h1v-2Zm93-3-1 1 1 1 1-1Zm-139-2 3 1 2 3v1l-3 2-4-2v-3Zm167 1-1-1-2 4-1-1v-3l-4 8h2l2-1 3-3Zm-147-2 1-1 1 1-1 1Zm-20 0-3 3v6l3 3h4l3-2v-6l-1-2h-1l-2-2Zm181-8v2h1Zm-18-1-1 2h-4l-1-1-1 1h-4l-4 2v2l1 1 5 2 3 3v2l-4 4h-11l-1-1-1 1h-2l-1-1h-5l-1 1h-6l-1 1-2-1v-1l2-2 3-1 4-4h1l4-4h1v-1l2-2h1l4-4h1v-1l3-3 2 1h2l3 2h2l1 1h4Zm-29-5 1-1 1 1-1 1Zm-57-3 1 1v26l-2 1-5-3h-2l-1-1v-2l2-3h2v-1l-2-1v-4l1-1v-3l1-2 4-4v-2Zm-80 1-1 2 1 1 1-1Zm182 31v3l-1 1h-2l-1-2h-1l-3-3h-2l-2-2h-4l-1 1 2 1h2l3 3v3l-1 1h-2l-8-4h-2l-4-2h-3l-1-1h-11 2l1 1h2l2 1 4 4v3l-1 1h-3l-2-1-3-4-2-1h-3l-4-2h-13l-1 1-7 1-5 4-1-1v-8l6-5 6-3 5-5h1l3-3h1l1-2h1l4-4h1l4-4h1l7-7 2 1v2l-6 6h-1l-1 2h-1l-6 6h-1l-8 8h-1l-2 2h-1l-2 2-4 2-2 2v1l2-1h2l1-1h2l1-1h4l1-1h4l1-1h25l4-2 1-2v-3l-4-4-2-1v-2l1-1h7l6 5v-5l-1-1v-3l1-1h2l4 3 2 4v6l-1 2-4 4-2 1h5l1 1h2l3 3ZM88 110h2l5 5 2 4v5l-1 2-6 5h-5l-4-2-2-2-1-5 1-1 4 3h3v-1l-4-4-1-2v-2l1-1h2l6 4-3-6Zm16-2 4-3 3 2h4l2 2-1 3-3 2h-5l-1-1 1-1h4l-1-1h-3l-1 2-2-2v-2Zm101-6 3-2h2l2 2v4l-1 1-2-1-2-2h-1Zm-86-3 1 1v4l-2 1-1-1v-3Zm-19 0v1h2v-1Zm-6 0-1 1v2h2Zm-59 0-1 1v2l2-1Zm31-2 2-1 2 2-1 1h-2Zm118 0 2-2h5l7 9 2 1h5l3 3v5l-3 3h-1l-1-2-2-1v-1l2-1 1-3h-1v2l-1 1-4 2-2-1 4-4v-1l-3 3h-1l-1-2-1 1h-3l-2-1-4-4-1-2ZM64 96l1-1 2 1-1 1Zm25-5 1 1 2-1h3Zm108-1-2 2h2Zm5-3 1 1-1 3-5 5h-3l-2-2-3-1-1 1h-3l-5 6h-2v1h2l1 1v2l-1 2h2l2 2v3l-2 1-4 4-1-1 1-2v-7l-4-8 1-1h2l4-2 6-7h8l3-2 1 1Zm-31-1 1-1 1 1-1 1Zm-62-1 1 1-1 2 1 1-1 2 1 1v9l-2 3h-1l-1-2h-1l-1 1 1 2-2 2v1l-2 2h-2l1 1h2l1 1v3h1l2 2v3l-1 1v4l-1 1h1v-4l1-1v-2l2-2h2l1 1v3l-1 1-1 7-2 3v2l-1 1v2l-1 1-1 5 3-3 2-1h4l4 4v4l-2 2h-1l-2-4h-5l-5 5-1 3-6 8-5 10-3 3v1l-3 3h-1l-1-1 1-2v-2l2-2 2-5 2-2 2-4v-2l2-2v-2l1-1v-3l1-1v-7l-1-1v-3l-1-1-1-5 3-3 1 1v2l1 1v4l1 1v6l1-1v-2l2-4v-2l-2-2v-4l-1-1 2-9-1-1v-3l-1-2-3-3-3-1-4-3h-3v2l1 1-1 2-2-1h-2l-1-1-1 1 1 2v5l-1 1-2-3v-3l-1-1v-2l-1-2 3-2h2l2-1 4-4v-2l2-2h3l1 1 1-1h6l2-1 5-5 1-3Zm-32-4 1-1 1 1-1 1Zm129-4 1 1v3l-1 1v2l-1 2-2 2-3-3 4-4Zm-20 1v1h2l1 1-1 1h1v-3Zm-7 0 1-1 1 1-1 1Zm-99 1 1-2 1 1h3l1-1 2 1-2 2h-5Zm126-2 1-1 1 1-1 1ZM78 76l1-1 2 2-2 1Zm26-3 2 3v8l-1 1v2l-1 2-3 3-4 2h-5l-1 1h-3l-3-4v-5l1-1 2 4 2-1h2-4l-1-1 4-2h-3l-1 1-1-1v-2l2-1v-1l3-3h1l4-3 2 1v1l-3 3 2 3h2l2-1v-2l2-3v-3Zm-47 0v7l1 1v3l2 3-2-4v-3l1-1 4 5h2l1 1 3-2v-1l-2-1-1-2 1-1h3v-1h-3l-1 1v2l-2 1Zm149-2 1-1 1 2-1 1Zm-51 4 2-1 2 2h2l1 1h3l1-2-2-2h-1l-1-2 4-2 4 3h3l3 2h2l2 2v1l-1 1h-5 1l2 2-2 2h2v-1l2-2 1 1v2l-3 3-5-1v1l-2 2-1-1h-3l-6-3-1-2-2-1Zm64-7-1 1 2 1v-2Zm-21-3 1 1-3 3-1 3h4l4-3 2 2-1 2v3l-2 2-1 3-2 2-4 2h-3l-1 1-1-1h-2l-2-1-3-4v-3l1-1h3l1-1-2-2 2-1-2-2 3-3 4-2Zm-85 0h3l2 2v2l1 1v4l1 1v21l-2 2-1-1V82l-1-1 1-5h-1l-2-2v-2l2-2-2 1-1-1v-2l-1-1Zm-57-2 2 2v3l1 2 4 4 2-1h4l3-3v-2l1-1 2 2v4l1 1v2l-1 2 3 2-1 1h-4l-1-1v1h4l5 3-1 1-5-1 1 1h2l1 2-1 1h-5 6l1-1h2l1 1-2 2-9 1 2 1 2-1h4l1 1-2 2h-4l-1 1h-3l-1-1-5-1-3-3v-1h-1v1l2 3-2 1-4-4v-1l-3-4v-2l-2-4v-4l1-1v-7Zm92-1 1 1v2l-1 1v12l1 1v3l3 3 1 2-1 3h3l2 2v2l2 1 3 3 1 2v3l-1 1h-2l-3-3 1-2h-1l-4 4v4l3 4v2l-6 5v2l-1 1v3l-1 1 1 1v4l2 2h1l1-3 4-4 4-2h3l1-1h3l1-1 1 2-8 7-4 2-3 3h-1l-8 6-1-1v-14l-1-1v-3l1-1v-11l-1-1 1-1v-5l-1-1 1-2-1-1V88l1-1-1-1v-2l1-1v-5l-1-2 1-1v-7Zm72-2-1 2h1Zm-113-1 1-1h2l5 5-2 1-1 2-2-4Zm-35-1 1 2v-2Zm115-2 1-1 1 1h4l1 1h2l1 1h2l2 1 5 5 1 5-1 1-2-4-2 1-1-1v-2h-10l-2-2v-3l-2-2ZM40 56h-1v2Zm27 0 4-2 4 2 2 2h1l3 4-2 2-2-1h-2l-2 3-1-1v-2l-4-4Zm90-3 1 1-5 10v12l1 1v2l2 4 7 6h2l1 1h8l4-2 2-2v-2l1-1 2 2v1l-2 4-3 3h-2l-1 1h-8l-3-2h-2l1 2 8 7v1l3 4 1 5-2 4-3 3-2 1h-2l-1 1h-3l-1 1h-2l-4 2-4 4-1-1v-4l1-1v-2l4-4 9-3v-1h-6l-3-3-1-2 2-2h1l2 3h4l2-2v-2l-1-1-1-5-3-3v-1l-2-2h-1l-1-2-3-3-2-4v-2l-2-3v-9l1-1v-3l1-1v-2l1-1v-2l1-2 3-3Zm-83 0h5l1 1h3l4 3h1l2 2v1l3 4v2l-1 1v6l-1 1-1-1v-5l-1 2v5l-1 1-1-1v-2 3l-1 1h-1l-2-3v2l-1 1-3-4v2l-1 1-2-2-1-2v-7l2-1 4 2 2-1v-3l-1-2-3-3-2-1h-2l-2-2Zm74-4 1 2-4 2-5 5-2 1-2 4v2l-1 1v10l-1 1 1 1v2l-1 1v2l1 1v70l1 1-1 1v17l-1 1v13l1 1v6l2 3v2l1 2 5 5 5 1 1 2-1 1h-4l-1-1h-23l-1 1h-16l-1-1 2-2 3-1 7-6h1v-1l3-3 2-4v-8l1-1v-5l1-1v-57l1-1-1-1V95l-1-1 1-2v-3l-1-1 1-1v-9l-1-1V64l-6-7-6-3h-4l-2-2 1-1h4l1-1h26l1-1Zm-75 2 4-2h3l1 1 7 1 2 2 3 1 2 2v2l2 2h2l1 1v2l-1 1 2-1 3 4-2 7-1 1-1-2-2 1-2-1 1-2v-4l-1-1-1-5-4-4h-1l-4-3h-2l-1-1h-4l-1-1h-4Zm102-6 2 1v3l-2 4v4l2 2v1h2v-4l2-2 4 2 2 3v6l-1 2-2 2h-3l-1-1-2 4-1-1v-3l-1 2-4-4-1-2v-2l-1-1v-6Zm12-1 1 1-3 3v3l-1 1h-3l-1 1-1-1 1-7 2-2h2l1 1-3 2 1 1 2-3Zm-12-1 1 1-4 4-2 4v2l-1 1v7l1 1v2l1 2-1 1h-6l-1 1h-4v1l-2 2h-1l-1-1v-2l3-4v-6l3-4v-1l2-2 1-3 4-4h2l2-2ZM35 41v2h1v-2Zm4-2v2h1Zm168-1h-2v1l1 1Zm-45 4h1l2-2h2l4-2h3l1-1h12l1 1h3l4 2 3 3 4 2 3 3 2 4v-6l2-4 3-3 2-1 4 2 1 2v2l-2 2h-4l-2-2-1 1v13l1 1v3l1 1v5l1 1v6l-1 1v5l-1 1v3l-5 10 4-3h7l2 1 3 5-1 2v3l-2 2-2 1h-2l-1-1 1-2v-4l-2-2h-8l-3 3-2 1-2-2v-2l5-5 1-3 3-4v-3l1-1v-6l1-1v-6l-1-1v-2l-2-4-5-5-2-1h-3l-1-1h-3l-1-1h-2l-2-2v-3l1-1h5l1 1h2l4 2 2 2v-1l-5-5h-1l-1-2-4-2h-2l-1-1h-8l-1-1-2 1h-5l-1 1h-2l-4 2-4 4h-1l-1-1v-2Zm-29 4v-3l2-2v-1l5-3 5 1 4 4-1 1h-2l-1-1h-5l-1 1h-2l-2 4Zm26-9-1 1 2 1Zm-54 5 2-3 4-2h2l1-1h7l6 5 1 2v4l-1 1-5-5-2-1h-2l-1-1h-5l-6 3Zm-8-5v1h2Zm102-4h-2l-1 1 2 1Zm-24 0 2 1v-1Zm-7 0v1h2v-1Zm-35 1 2-1h-2Zm-6-1v2h1v-2Zm-31 0h-2v2h1Zm-18 0v1h2v-1Zm-27 0-2 1h2Zm159-1v1l2 1v-1Zm-5 1-1-1-1 2h2ZM35 31h4l2-1 1 1h2l1 1-1 2h1v-2l1-1h3l1-1 2 1h4l1-1h2l1 1h3l1-1 2 1h3l1-1h9l1 1h5l1-1h3l1 1h9l2 4h1v-2l3-2h5l1 1-4 2h2l4-3h8l1-1h19l1 1h4l1-1 1 1-1 3 2-1h4l1 1h2l2-4h65l1 1v3h1v-2l1-1 2 1v86l-1 1 1 2v28l-1 1 1 2-1 2v21l1 1-1 1v12l1 1-1 2 1 1v31l-3 3h-32l-1-1-1 1h-52l-1 1h-2l-1-1-1 1-1-1-2 1-1-1h-5l-1 1H65l-1 1-1-1h-5l-1 1H47l-1-1h-3l-1 1h-6l-2-2-1-2v-23l-1-1v-5l1-1-1-1 1-1v-3l-1-1v-2l1-1v-2l-1-1v-3l1-1v-13l-1-2 1-1v-9l1-1 2 1-1-2-1 1-1-1v-2l-1-1v-3l2-2 1 2v-2l-2-1v-5l3-2-1-1-1 1-2-2 1-5 2-1v-2l-2-1v-5l2-1h-1l-2-2 1-2v-3l2-1-2-1v-2l-1-1V94l2-2h3l1 1 1 7 2 1h4l1 1 1-1 1 1 3-3h3l2 1 8 8-1 2h-3l-1-1-1 1h-3l-2-2-1 1v1l2 2-1 2-3-1-2-2h-2l-1 1v11l2 2v1l5 5 4 2h9l1-1h3l2-1 4-4h1l4 4 2 1h6l4 2v2l2 4v9l-3 6-2-1v-4l-2 1-1-1-2-7-5-6-2-1h-3l-1-1h-6l-1 1h5l1 1h2l2 1 5 5 2 4v12l1-2 3-3 1 1v6l-1 1v3l-1 1v2l-2 4-6 7-5 2-1 2 2-1h2l1-1h7l4 4 2 4v2l1 1h2l7-7 3-6 1-1h2l1 1v2l-1 1v3l-3 3 1 1 1-1 3 1 3 4-1 3-2 2h-2l-2-2h-6l-2 1-1-1 4-3h6-7l-2 2h-1l-1 2v2l-2 3h-1l-1-2 1 3-2 2-2-1v-2h-1v2l-2 4-2-3v3l-1 1h1l1-2 1 2h2l1 1-1 2h-6l-1-1v-4l-1 2v2l-1 1-1-1v-4l-1-1v8l-1 1h-2l-4 2h-3l-1 1h-5l-1-2 1-1h4l1-1h3l4-2 1-2h-3l-2-1-1 1h-2l-4 2h-2l-1-1h-3l-2-1-3-4v-2l-1-1 1-1-1-1v2l-1 1-1-1v-2l-1 1v1l2 1v3l-1 2 2-1 2 2 1 3 2 1h2l1 1v1l-2 1v2h2l3 2h8l1 1v2h2l-2-2 1-2h4l1 1 1-2 3-3h2l1-1h4l1 1h57l1-1 5 1 1-1h22l1-1 2 1h2v-1l-17-8-1-1 2-1v-1h-1v1l-2 1-6-3-2-2v-2l2-1-3 1-2-2v-2l-1-1v-3l-1-1v-6l1-1h2l1 1-2 2v1l4 4 4 2-3 2 1 1 2-3h8l5-3 5 6v1l-3 3-1 2v2l3 5h5l2-4h5l2 2v2l-1 1v4l-1 1-1-1h-3v2h14l1-1h2l6 6h2l1 1h3l1 1v2h1v-2l4-2 3-3h1l3-4v-2l1-1v-6l-2-1-2 1-3 3h-4l-2 1-3-3v-5l2-3 1 2 2 1v-1l-3-2v-2l2-3h2l2 2v4h1v-2l1-1h3l2-2h1l1-2v-7l-3-4v-1l-4-2v-3l-1-1 1-1v-2l-1-1v-5l-2-4-2-2v-2l2-1v-3l-1-1 1-1h1l2 2h5l1-2v-5l-2-2-1-2v-2h-3l-1-1v-1l3-4v-2l1-1v-3l-2-4-5-5h-1l-1-2 1-1v-6l1-1 2 1h4l2-1 2 2h1l-2-2v-2l2-2v-2l1-1-1-2v-3l-3-3-4-2h-3l-2-2 2-3v-2l1-1v-3l1-1V65l-1-1v-4l-1-1v-7l2-2h4l2-3v-5l-1-2 1-1 3 1-1-2h-2v1l-2 1-3-3h-3l-1 1h-2l-4 4-1 2h-2l-2-2-3-1-2-2-2-1h-2l-1-1h-2l-1-1 2-1 1-2h-1l-3 3h-3l-1-1v-2h-2v1l-2 2h-6l-1 1h-3l-5 3h-2l-2 1-3 3-2-2h-1v1h2l1 1-2 4h-17l-1-1 4-3h7l2 1 1-1-2-3v-2l-6-3h-4l-1-1 1-2h-1v3l-2 1-4 4v2l-2 2-3-6-4-3h-1l-1-1v-2h-1l-1 2h-2l-2-1-1 1-5 1-2 2h-1l-3 3-2 5 1-1h5l1 1 2-2 7-1 4 2 2 2-1 2H95v1l2 2h1l8 8 1 3 2 2 3 6v5l1 1v6l1 1v20l-1 1h-2l-1-1V82l-1-1v-3l-1-1v-2l-1-1-1-5-3-6-2-2v-1h-1l-3-3v-1l-2-1-1-2-3-1-3-3-2-1h-2l-1-1H72l-6 5h-1l-1 2v5l4 4 1 2v3l-2 3h-3l-4-4-1-2v-3l1-1v-5l2-4-2 2h-1l-6 6v1l-2 2v2l-1 1v4l-1 1v7l1 1 1 7 2 4 5 6 8 4h9l4-2 1-3 3-3 1 1v4l-1 2-4 4h-2l-1 1h-7l-1-1h-2l7 7 2 4v5l-1 1v3l-6 6-2 1h-2l-1-1 6-5v-3l-1-1v3l-1 1-1-2v3l-1 1h-2l-1 2v2l-1 1h-4l-6-3-2-2v-1l-2-2v-2l-1-1v-3l2-2 2 2v1l2 1h5l1-3-3-3 1-2h5l1 1h3l5 5v-3l-3-3v-1l-8-8-2-1v-1l-6-6v-1h-1v2l-3 3h-5l-2-2v-3l1-1 2 1h3l2-2v-4l-2-3v-3l-1-1V69l1-1v-2l4-8 2-2h-5l-3-2-2-4v-5l2-4 2-2h2l1-1 2 1 3 4-2 2h-5v3l3 3h5l6-3 2-2 2-1h2l1-1h2l1-1h15l7 4h3v-1h-2l-2-1-2-2v-2l-2 1h-2l-1-1h-2l-1 1-2-1h-3l-1 1-9 1-4 2-2 2-4 2h-2l-1-2 2-3v-2l-3-4-2-1h-4l-2 2h-1l-3 4v2l-1 1v3l1 1v2l2 4 4 4-1 1v3l-2 4v12l1 1v3l1 1v4l-2 2-2-1h-2l-1-1h-1l-1 2h-4l-1-1V34Zm197-5h-6l-1 1h-21l-1 1h-16l-1-1h-4l-1 1h-7l-1-1h-9l-1 1-2-1h-24l-1 1h-3l-1-1h-6l-1 1-2-1h-18l-1 1H32l-4 3 1 2v67l1 1-1 2v10l1 1v7l-1 1v7l1 1v12l-1 1 1 1v33l1 1v10l-1 1v13l1 1-1 2v7l1 1v2l-1 1v5l1 1v7l-1 2 2 2h48l1-1h2l1 1 2-1h15l1 1h2l1-1h30l1-1 2 1h2l1-1h6l1 1h41l1-1h9l1 1h3l1-1h6l1 1h8l2-1 1 1h4l2-1 1 1h3l1-1v-7l-1-1v-4l1-1-1-2v-3l1-1v-19l-1-1 1-1v-7l-1-1V98l1-1V41l1-2-1-1V27Z"/></svg>