<svg viewBox="23 22 175 176" xmlns="http://www.w3.org/2000/svg"><path fill="currentColor" fill-rule="evenodd" d="m25 190 1-1h4l2 2v3l-1 1h-3l-3-2zm143-2-4 4h-2l-3 2h-23l-2-2 3-2h3l1-1h12l1-1h5l1-1h7zm-50 0 1-2 2 1-2 2zm-1-2 1 1v2l-1 2-3 3-1-1v-4l2-3zm50-3 1-1 2 1-1 1zm-80 0 2-1 1 1h2l1 1h4l1 1h9l1 1h4l1 1v3l-2 2v2l-1 1h-2l-1-1 2-6-2 2v2l-2 2h-2l-1-2 2-2v-2h-1l-1 3-2 2-1-1v-3l1-1h-1l-3 3h-1l-1-1v-2l1-1-2 1-3-3h-2zm64 1v-2l3-2h2l3 3-2 2h-1l-2-2-2 2zm-117-9 1 1v5l-1 2-4 3-3-1-1-1v-5l1-2 3-2zm4 1v-1l2-1 2-4 2 1v-2l4-2 1 1 1-1 1 1h5l4 2 2 3-2 2-2-1h-5v2l-2 2-2-2v-4l-1 2v4l-2 2h-5zm13-12h4l1-1 2 1h4l2 2 2 4v3l2 4v4l-1 1-1-1-3 1-2 2-2 4-2-1v-5l1-2 3-3h2l1-3-4-4v-1l-4-2-5-1-1-1zm130-1v4l1-1zm-11-3 2 3v7l1 1v8l-1 1-1-1-2-7v5l-1 1-2-1v2l-2 2h-1l-2 3h-1l-3-5 3-3h1v-1l2-2 2 1-1-2v-3l2-2h2l-1-1v-2l1-1v-2zm-115 0 3-2h2l2 2v1l-2 2zm124-7 2 1 3 3 1 2h5l5 5v2l1 1-1 1v3l-2 2v1l-5 5v1l-3 3-2 4v3l1 1v2l-1 1h-1l-3-3-2-1-1-2v-3l-1-1v-4l1-1v-3l3-3 2-1v-2l-2-1-3-4v-7l-1-1v4l1 1v5l1 1v2l-2 2h-1l-1-1-1-9-2-3 2-4 2-1h4zm-113 0 1-1 1 1-1 1zm53-3v-2l1-1 2 2-2 2zm-1-6 2-2h9l2 1 4 4 1 5-2 2-2-3v-2l-3-3-2-1h-8zm-80-5 4 2 5 5v2l1 1v9l-1 1v2l-1 2-4 4h-1l-3 3-5 1-5-3-1-5 1-1v-2l3-3v-1l6-6v-2l1-1-1-1v-3l-2-2v-1l1-1zm156-1 1 1v8l-1 1v2l-2 4-2 2h-3l-1-1v-4l2-2v-1l2-1 2-4v-3zm-97-2 1-1 1 1-1 1zm32-4 1-1 2 1-1 1zm-54 0 1-1 1 1-1 1zm56-1 1-1 1 1-1 1zm-58-1 2-1 1 2-1 1zm60-1 2-2 2 1 2 2v1l-1 1-1-1h-2zm31-6h1l2 2v3l-1 1h-1l-2-3v-2zm-34-1 2 1 2 2v1l-8 6-4 2h-2l-1 1h10l1-1h3l1-1h6l2 2v2l2 3v5l1 1v8l-1 1-1 5-9 10-8 4h-5l-1-1 1-1-1-1v-5l-1-1v-3l1-1v-5l1-2 3-3h4l2 2v5h2l3-3 2-4v-4l-1-2-3-3-2-1h-2l-1-1h-6l-1 1h-2l-2 1-5 5v1l-2 2v2l-2 2h-1l-2-2-3 1-1-1v-3l2-3 1-5 10-10h1l2-2 4-2h2l6-3zm55 0 1-1h2l2 2v2l-1 1h-2l-2-2zm-55 0-2 2h-3l-1 1h-2l-3 2h-2l-3 3h-2l-1 2-2 1-1 2-4 4-4 8v2l-1 1-1-1v-3l1-1 1-7 3-6 2-2v-1l4-4h1l3-3 4-2 3-3h2l6 3zm-10-5-1 1h-3l-4 3h-1l-5 5v1l-4 3-1 3-2 2-1-1 1-5 2-2 4-8 3-3v-2l1-1 9 2zm31-8 2-2h1l1 1h3l1 1h2l2 2-6 3zm-126 4 3-4 1 1 2-4 2-1h2l1-1h4l1 1h2l4 2 4 4v1l3 1 3 3v3l-2 2-2-1-3 3-1-1 1-2v-5l-2 5-2 2-1-1v-4l1-1v-2l1-1-1-1 1-1-1 1-1 5-3 3-1-1v-3l1-1v-2l-3 5-2-1 1-7-1 2v3l-2 2-2-1v-3l1-1v-1h-1l-1 5-1 1h-2l-1-1-2 4-1-1zm54-10 3 1 2 2h2l4 2h3l4 2h4l1 1h3l4 2-4 2v1l-3 3-1 3-3 4v2l-2 4v3l-1 1v5l-1 1v5l1 1v5l1 1-1 2-2-1-4-8v-2l-2-2-4-8v-3l1-1v-4l-1-2-5-5v-16zm89-11 2 1v4l3 3 2 1h13l6 6v6l-4 4h-6l-1 1v5l-1 1-2-2-1-3v5l1 1v3l-1 1-3-1v2l-1 1-2-2-2-4 1 2v2l-1 1h-1l-3-3v-2l-1-1v-3l-1-1v2l-2 2-4-7v-2l1-1h7l2 3v2l1 2h2l3 3 1 2-1-5-1-2-3-3v-2l1-1h3l2-1v-1l-3-2h-3l-1-2h-1l-2-3v-2l-1-1v-5zm-55-3 1-1h3l2 2-1 1h-3zm-59-5h2l1 1v6l3 6 3 3 1 7-2 4h-7l-4-4-4-8v-9l3-4zm7-1h2l1 1 5 10 2 2h1l1 2 5 4-2 3v6l-1 1v6l1 1v3l-1 1h-3l-6-6-4-2v-1l4-5v-8l-7-10v-5zm-28 0 4 2 1 2v5l1 1v2l2 4 3 3-1 1-5-2-5-5-2-4v-7zm53-6 1-1h5l4 3v1l3 3 1 3-1 1-2-2-7-3-4-3zm4-5 3-3h2l1 1v3l-1 1h-2zm9-4h4l1 1 1-1 2 1 4 4-1 2h2l1 1-2 4v2l-2 1-4 5-2-3 3-3 1-2-4 3-2-1 1-1v-2l3-3v-2l-2 4-3 2-1-1v-2l2-4h-1l-2 3h-2l-1-1zm23-5h4l1 1v7l3 4 1 3 2 2 2 4-1 2v3l-3 3h-2l-1 1-2-1h-2l-3-3-2-4h-4l-1-2v1l-4 4h-2l-1-1 1-2 3-3v-1l2-2 2-4v-5l1-1v-2l2-2zm28-2 3 1 4 4 1 3 2 2-1 1 1 1v4l1 1v4l-1 1-2-3v-3l-1-1v-2l-2-4-3-3h-1l-2-3v-2ZM81 71v-3l-1-1 1-1v-4l1-1v-2l1-2 3-3h1l2-2 4-2h3l1-1h19l3 2h2l2 1 2 2-1 1h-5l-1 1h-2l-2 1-5 5v4l-1 1h-4l-1-1h-9l-2 1-6 6-1 2h-1zM63 48l3 2v3l-2 2-3 1v1h4l1-1 1 2-1 1v2l-2 3v3l-1 1v4l-1 1v8l-1 1h-9l-2 1-4 5v2l-1 1v5l-1 1h-2l-2-3v-6l-2-2v-3l7-6 2-4v-2l2-3v-2l1-1 1-7 2-4 2-2v-1l4-3zm99-1 1 1v2l-1 1-1-1v-2zm-96-1 2-1 1 2-1 1zm-16-2h1l2 3v3l-2 2-2-2v-5zm45-3h8l1-1h10l1 1h6l1 1h2l4 2h3l4 2h6l1-1h2l2-2 2 1v9l1 1-1 2v3l1 1v4l-1 1v2l1 1 1-1 5 5 1 2v2l1 1v13l-2 4-2 1v1l-3 3v1l-4 2h-2l-6-3-2-2-2-1h-2l-2-2 5-4 2-4-1-2v-4l-2-4-2-2v-1l-2-1-2-4 2-2h2l2 2-1-3-2-2h-2l-1-1h-8l-4 2-3 4-2-1v-4l1-2 3-3 2-1h2l1-1h5l2-1 4 2 8 9 5 10v3l1 1v2l1 2 3 1 1-1v-2l-1-1v-4l1-1-1-1v-2h-1l-2-2-4-9-5-5v-1l-7-6h-2l-5-3h-2l-4-2H98l-1 1h-3l-5 3h-2l-7 9v3l-1 1v5l1 1v4l2 2 1 3 2 2h1l3 3h1l4 3h2l8 4h3l1 1h2l1 1h2l4 2h3l1 1 5 1 20 10 10 10 1 3 2 2 3 6v2l1 1v3l1 1v7l1 1v3l-1 1v4l-1 1v2l-6 12-10 9h-2l-2 2-4 2-5 1-1 1h-5l-1 1h-5l-1 1h-6l-1-1h-13l-1-1h-4l-1-1h-4l-1-1h-4l-1-1-2 1h-3l-1 1h-3l-2-3v-3l-1-1v-2l-1-1-1-5-2-3v-2l-2-1v-3l1-1 2 1 12 12 10 5-2-2-3-1-2-2-4-2-4-4h-1l-4-4v-1l1-1h2l1 1h4l1 1h2l4 2 7 6h1l2 2 2 4h1l1 2 2 1-1 1h-2l-1-1-5-1 4 2h5l1 1h3l1 1h7v-1h-3l-1-1h-7l-2-2 1-2-2-4v-5l3-4h2l2 2-1 1 2 2 1-1-1-1 1-2v-4l1-1h2l2 1-1-1v-2l2-2h1l1 1v7l-1 1v11l2 4 3 3 1-1h6l12-6 6-6 2-4v-2l2-3v-2l1-1v-10l-1-1v-3l-1-1v-2l-2-4-6-7v-1h-1l-8-7h-1l-2-2-4-2h-2l-5-3h-3l-1-1h-2l-1-1h-2l-1-1h-2l-1-1h-2l-4-2h-3l-3-2h-3l-8-4-2-2-4-2v-1l-4-4-1-3-2-2v-2l-2-4v-3l1-1v-7l1-1 1-5 2-2v-2l1-2 5-5h1l2-2 4-2h2l1-1 5-1zm-42 3v-2l1-1h3l1-1h2l1 1h3l3 2-3 3-2-2v-1l-1 2h-2l-2-1v1l-2 2zm63-10 2 1v3l-1 1-2-1v-3zm-7-3 1-1 1 1h2l2 2v1l-3 2-2-2zm58-4h6l1 1h2l2 2 6 3h5l2-1 3-3 1 1v4l-3 3-2 1h-5l-2 2 1 1h6l1 2-2 2-2 1h-9l-1 1v5-2l1-1h5l4 3 3 1 3 5v2l-1 1v4l-1 1v3l1-2v-2l2-2 2 4-1 1v3l-2 3v4l-2 4-2-1v-5l1-1v-3h-1l-2-2 1-2v-7l1-1-1 1v4l-1 2-2 1-1-1v-6 1l-3 3-1-1v-4h-1v1l-2 2-2-2 1-1-1-2v1l-2 2-2-2v-2l-1 2-2-1-1-2v-2l1-1v-4l1-1h-1v2l-1 1v2l-2 3-2-2v-5l1-1v-2l2-2h4v-2l-2-3h-2l-3-4v-5zM32 27l3 1 2 2 3 6v3l1 1h3l1 1v4l-2 3-1 7-3 4v3l-1 1v6h4l-1-1v-6l1-1 1 1 1-1-2-4 1-2 2-2h1v-4l2-2 1 1v4l1 1v3l-2 3v5l-1 1-2-1v8l-1 1v2l-3 4-4 2h-6l-5-5V64l1-1v-2l1-2 3-3 2-4v-2l2-3v-2l1-1v-8l-3-6-2-2zm101-1 2 2-2 2h-1l-2 3v4l3 4v1l-1 1h-2l-2-1-3-3-1-2v-6l3-3 2-1h3zM30 27l1-1 1 1-1 1zm-6-4v3l8 7 2 4v7l-5 10v3l-1 1v2l-2 2v2l-2 3v4l-1 1 1 1v4l5 7-2 3 1 2v3l2 4 6 6-3 2h-2l-2 1-4 4-2 4v7l1 1v2l4 4h2l1 1h2l1-1-2-2h-2l-1-1v-2l2-2h3l1 1h2l7 4h3l1 1h5l6-3 1-2v-2l1-1h2l2 2h1l5 5v7l1 2 3 2h4l4 4 6 12 2 2v2l-2 1-4-2-2-2h-4l-1-1h-8l-10-11v-1l-4-4v-1l-3-3h-2l-3 2v3l2 4 3 3v1l4 5 1 3 2 2-1 2h-4l-3 3h-1l-2-2 1-1v-7l-2-4-2-2v-1l-3-3-4-2h-8l-2 1-6 6 1 1h3l3-4h4l2 2v4l-1 2-2 2h-1v1l-2 2-2 1v1l-2 2-2 4v4l2 4h1l2 2v1l-2 1-3 3-1 2v4l2 2v2l-1 1-1 5 3 2h4l2 1 2-1 1-2v-3l-2-4 2-2v-2l2-2 4 2h6l4-2 3-3 3-1 1 2-3 5v3l1 1v3l2 2v1l4 3h2l1 1h5l4-2v-1l2-1v-1l2-2-1-1h-2l-5 5h-6l-3-4v-3l2-4 4-2h1l2 3 1-1h2l4-2h4l7 6h1l6 6 4 2h2l4 2h7l1-1h2l4-3 4-8h6l1-1h5l3-2 5-1 3-3 5-2 2-2v-1l5-5v-1l4-5 2-4v-2l1-1v-4l1-1v-4l1-1v-6l-1-1v-6l1-1h2l1 1h7l1-1h2l3-3h2l2-1 2 1 2 3v8l-1 1-1 5-2 2h-1l-1 3-1 1h-2l-1-1h-4l-4 2-6 7-1 2v2l-3 4v2l-2 2v1l-6 6-2 1h-2l-6 3 3 2-1 2h-5l-1 1h-2l-1 1h-2l-4 2-4 4v2h6l1-1h12l1 1h10l1-1h3l2-1 9-10 4 8 6 4h8l1-1h2l3-3v-6l-3-2v2l2 3-1 2-3 2h-4l-3-3v-2l-1-1 3-6 2-1v-1l2-1v-1l2-1 2-3h1l2-4v-4l-1-1v-2l-2-4-2-2 4-8v-11l-1-1v-4l-2-3v-2l-1-1v-4l-1-1v-2l4-4v-2l1-1v-5l-2-3v-2l-10-5h-11l-3-4 1-2v-3l-2-1-3 3-2 4v2l-1 1v4l3 6-1 1h-2l-3-2h-2l-1-1h-3l-1-1-5 1-1-2 2-2h1l6-6 1-2v-2l3-5v-3l1-1v-5l-1-1v-4l-1-1-1-5-3-3v-1l-7-6v-5l1-1v-4l1-1h2l4-3h2l1 1-2 4v3l4 8 4 2 2 2h2l12 6 4 4 1 2v7l-1 2-2 2h-5v2h7l1-1h2l5-5 1-2v-2l1-1v-3l1-1v-9l-1-1v-2l-3-6-6-6 2-2h2l3-4v-5l3-4v-7l-2-3h-3l-1 1v4l-2 2-3 1-10-7h-2l-1-1h-7l-4 3v2l-1 1v6l1 1v2l-1 1h-3l-1 1h-2l-3 2-2-1v-2l-1-1h-5l-3 3-2 1h-2l-2-2v-1l-3-3-1-2v-2l4-3h7v-1l-2-2h-1l-4-3h-6l-2 1-2 2h-1l-1 3-2 2h-2l-6-3-2-2h-4v3l-1 1 2 4 3 3-1 1H97l-1 1h-4l-1 1-5 1-8 4-6 5-2-2 1-2-3-6-4-2h-9l-1-2 4-3h6l1 1h2l1 1h3l1 1h3l1 1h10l6-3h2v-1l-1-1-6 3H75l-1-1h-3l-4-2-7-1-1 1h-3l-2 2h-1l-4 5-1-1 1-5 6-6 2-1h2l1-1 1 1h13l8 4h4l1 1 6-3h4l2-3v-2l-1-1h-3l-2 2v1l-4 3h-7l-5-3h-2l-1-1h-3l-1-1H60l-1 1h-3l-6 5v1l-3 4 1 1-1 1h-3l-2-2v-2l-1-2-5-6-4-2h-5l-1-1z"/></svg>